<svg width="885" height="834" viewBox="0 0 885 834" fill="none" xmlns="http://www.w3.org/2000/svg">
<g clip-path="url(#clip0)">
<path fill-rule="evenodd" clip-rule="evenodd" d="M396.799 685.917C437.716 685.917 470.9 719.109 470.9 760.017C470.9 800.946 437.712 834.121 396.799 834.121C355.879 834.121 322.696 800.946 322.696 760.017C322.696 719.109 355.879 685.917 396.799 685.917ZM381.1 760.017C381.1 746.051 398.049 739.067 407.901 748.924C414.03 755.044 414.03 764.998 407.901 771.131C398.053 780.971 381.1 773.988 381.1 760.017Z" fill="black"/>
<path fill-rule="evenodd" clip-rule="evenodd" d="M742.602 685.917C783.523 685.917 816.702 719.109 816.702 760.017C816.702 800.946 783.523 834.121 742.602 834.121C701.686 834.121 668.502 800.946 668.502 760.017C668.502 719.109 701.686 685.917 742.602 685.917ZM726.898 760.017C726.898 746.051 743.855 739.067 753.708 748.924C759.84 755.044 759.84 764.998 753.708 771.131C743.855 780.971 726.898 773.988 726.898 760.017Z" fill="black"/>
<path fill-rule="evenodd" clip-rule="evenodd" d="M658.958 523.622C754.157 511.166 832.671 447.028 863.899 358.27C903.332 265.5 880.6 221.624 853.5 209.223L560.746 171.394L177.357 115.449L141.554 89.5299C146.586 69.3255 142.346 48.3559 131.444 32.1095C109.342 -0.80862 64.7293 -9.64613 31.7838 12.4711C-1.13827 34.5726 -9.97579 79.1935 12.1453 112.139C32.6972 142.758 73.0164 152.962 105.618 135.501L142.163 161.959L292.846 532.908C287.822 538.67 283.536 545.22 280.089 552.504C253.932 607.891 294.969 670.706 355.848 670.706H813.415C829.541 670.706 842.614 657.633 842.614 641.503C842.614 625.378 829.541 612.301 813.415 612.301H355.848C346.515 612.301 339.036 608.316 334.125 600.493C325.135 586.156 333.192 567.888 348.892 564.187L658.958 523.622ZM575.5 233L416.239 209.223L445.101 308.832L591.962 312.915L585.342 274.876C585.342 274.876 579.665 248.286 575.5 233ZM83.0913 64.5085C76.6232 54.8708 60.896 57.2676 58.4993 69.466C56.0713 81.8479 69.7531 89.9008 79.4142 83.421C85.5544 79.2989 87.19 70.6214 83.0913 64.5085ZM408.731 497.816C418.574 496.449 428.386 495.087 438.11 493.811L401.035 365.819L286.635 362.638L344.844 505.927C365.915 503.761 387.394 500.779 408.723 497.817L408.724 497.817L408.731 497.816ZM462.101 367.513L496.491 486.183L619.303 470.113L602.131 371.405L462.101 367.513ZM262.714 303.754L384.023 307.126L352.983 199.991L212.223 179.443L262.714 303.754ZM640.5 239.5L650 312.915C650 312.915 751 319.5 784.5 319.5C801 298.833 819.6 256.1 780 252.5C768.334 251.439 754.038 250.281 738.908 249.054C702.678 246.117 661.662 242.792 640.5 239.5ZM676.887 460.865L658.958 371.405L789 373.961C763.335 412.376 722.776 448.593 676.887 460.865Z" fill="black"/>
</g>
<defs>
<clipPath id="clip0">
<rect width="885" height="834" fill="white"/>
</clipPath>
</defs>
</svg>
