<svg width="512" height="468" viewBox="0 0 512 468" fill="none" xmlns="http://www.w3.org/2000/svg">
<path fill-rule="evenodd" clip-rule="evenodd" d="M496.999 160.734H491.089L430.593 9.49608C428.316 3.80077 422.8 0.0664062 416.667 0.0664062C414.718 0.0664062 412.835 0.445311 411.097 1.14062L307.39 42.6132C298.718 30.5117 285.886 21.5859 270.999 17.9453C258.199 15.5015 245.666 16.927 241 17.9453C213.371 24.6992 192.8 49.6522 192.8 79.3358C192.8 82.3475 193.027 85.3084 193.437 88.2108L89.7615 129.672L89.7576 129.676C86.0233 131.176 82.9608 134.144 81.4061 138.027L20.9101 289.265H15C6.71483 289.265 0 295.984 0 304.265C0 347.976 35.5585 383.534 79.2655 383.534H111.402C155.109 383.534 190.668 347.976 190.668 304.265C190.668 295.984 183.953 289.265 175.668 289.265H169.754L114.832 151.957L204.609 116.054C213.285 128.156 226.113 137.082 241 140.718V378.5H223.867C180.16 378.5 145.028 409.285 145.028 453C145.028 461.285 151.746 468 160.028 468H352.832C361.113 468 367.832 462.234 367.832 457.734V452.984C367.832 409.285 331.839 378.5 288.132 378.5H270.999V140.718C298.628 133.968 319.199 109.015 319.199 79.3358C319.199 76.3202 318.972 73.3592 318.566 70.4569L389.741 41.9921L342.245 160.734H336.331C328.05 160.734 321.331 167.449 321.331 175.734C321.331 219.441 356.89 255 400.601 255H432.734C476.44 255 511.999 219.441 511.999 175.734C511.999 167.449 505.284 160.734 496.999 160.734ZM79.2655 353.531H111.402C133.332 353.531 151.965 339.128 158.328 319.281C158.306 319.279 158.286 319.276 158.265 319.273C158.245 319.27 158.224 319.267 158.203 319.265H32.3359C38.6952 339.12 57.328 353.531 79.2655 353.531ZM53.2226 289.265H137.445L95.3318 183.988L53.2226 289.265ZM177.36 438H335.5C329.145 418.148 310.074 408.5 288.136 408.5H223.867C201.925 408.5 183.719 418.148 177.36 438ZM222.8 79.3319C222.8 97.6404 237.695 112.531 255.999 112.531C274.308 112.531 289.199 97.6404 289.199 79.3319C289.199 61.0272 274.304 46.1327 255.999 46.1327C237.695 46.1327 222.8 61.0272 222.8 79.3319ZM458.776 160.734L416.667 55.4569L374.554 160.734H458.776ZM400.601 225H432.734C454.667 225 473.296 210.593 479.659 190.746C479.62 190.742 479.577 190.738 479.534 190.734H353.667C360.027 210.586 378.663 225 400.601 225Z" fill="black"/>
</svg>
